<svg xmlns="http://www.w3.org/2000/svg" viewBox="0 0 124 32" width="124" height="32" role="img" aria-label="Snowy">
  <title>Snowy</title>
  <g transform="translate(4 4)">
    <g stroke="#2563EB" stroke-width="1.3" stroke-linecap="round" fill="none">
      <line x1="12" y1="12" x2="12" y2="2"/>
      <line x1="12" y1="12" x2="20.66" y2="7"/>
      <line x1="12" y1="12" x2="20.66" y2="17"/>
      <line x1="12" y1="12" x2="12" y2="22"/>
      <line x1="12" y1="12" x2="3.34" y2="17"/>
      <line x1="12" y1="12" x2="3.34" y2="7"/>
    </g>
    <g fill="#2563EB">
      <circle cx="12" cy="6" r="1.4"/>
      <circle cx="17.196" cy="9" r="1.4"/>
      <circle cx="17.196" cy="15" r="1.4"/>
      <circle cx="12" cy="18" r="1.4"/>
      <circle cx="6.804" cy="15" r="1.4"/>
      <circle cx="6.804" cy="9" r="1.4"/>
      <circle cx="12" cy="2" r="0.9"/>
      <circle cx="20.66" cy="7" r="0.9"/>
      <circle cx="20.66" cy="17" r="0.9"/>
      <circle cx="12" cy="22" r="0.9"/>
      <circle cx="3.34" cy="17" r="0.9"/>
      <circle cx="3.34" cy="7" r="0.9"/>
      <circle cx="12" cy="12" r="2.5"/>
    </g>
  </g>
  <text x="40" y="22"
        font-family="-apple-system, BlinkMacSystemFont, Inter, 'PingFang SC', 'Helvetica Neue', Arial, sans-serif"
        font-size="20"
        font-weight="600"
        letter-spacing="-0.4"
        fill="#1C1917">Snowy</text>
</svg>
